<svg width="72" height="72" viewBox="0 0 72 72" fill="none" xmlns="http://www.w3.org/2000/svg">
<g filter="url(#filter0_d)">
<path d="M12 28C12 14.7452 22.7452 4 36 4C49.2548 4 60 14.7452 60 28C60 41.2548 49.2548 52 36 52C22.7452 52 12 41.2548 12 28Z" fill="white"/>
</g>
<path fill-rule="evenodd" clip-rule="evenodd" d="M26 25.2636C26 21.6511 28.6257 19 32.0483 19C33.6675 19 35.0203 19.6588 36.0021 20.7016C36.985 19.6574 38.3279 19 39.9517 19C43.3743 19 46 21.6511 46 25.2636C46 27.4216 45.0589 29.4793 43.5184 31.3629C41.9784 33.246 39.7957 35.0117 37.1854 36.6166L37.1707 36.6256L37.1556 36.6342C37.0244 36.7087 36.8602 36.7916 36.6849 36.8588C36.5282 36.9187 36.2773 37 36 37C35.7225 37 35.4715 36.9188 35.3132 36.8576C35.1367 36.7894 34.9706 36.7042 34.836 36.624L34.8243 36.6171L34.8244 36.617C32.2094 35.0121 30.0243 33.2464 28.4829 31.3632C26.9412 29.4794 26 27.4217 26 25.2636ZM32.0483 21C29.7791 21 28 22.7062 28 25.2636C28 26.8179 28.6766 28.4421 30.0307 30.0965C31.3839 31.7499 33.3702 33.3772 35.8639 34.9084C35.9074 34.934 35.9561 34.9589 36.001 34.9784C36.0483 34.9584 36.1019 34.932 36.1541 34.9028C38.6389 33.3734 40.6197 31.7482 41.9702 30.0968C43.3233 28.4423 44 26.818 44 25.2636C44 22.7062 42.2209 21 39.9517 21C38.6382 21 37.6158 21.6559 36.9415 22.7519C36.5086 23.4556 35.4845 23.4509 35.0566 22.7467C34.3996 21.6656 33.3638 21 32.0483 21Z" fill="#8D80D1"/>
<defs>
<filter id="filter0_d" x="0" y="0" width="72" height="72" filterUnits="userSpaceOnUse" color-interpolation-filters="sRGB">
<feFlood flood-opacity="0" result="BackgroundImageFix"/>
<feColorMatrix in="SourceAlpha" type="matrix" values="0 0 0 0 0 0 0 0 0 0 0 0 0 0 0 0 0 0 127 0"/>
<feOffset dy="8"/>
<feGaussianBlur stdDeviation="6"/>
<feColorMatrix type="matrix" values="0 0 0 0 0.168627 0 0 0 0 0.164706 0 0 0 0 0.270588 0 0 0 0.06 0"/>
<feBlend mode="normal" in2="BackgroundImageFix" result="effect1_dropShadow"/>
<feBlend mode="normal" in="SourceGraphic" in2="effect1_dropShadow" result="shape"/>
</filter>
</defs>
</svg>
