<svg width="72" height="72" viewBox="0 0 72 72" fill="none" xmlns="http://www.w3.org/2000/svg">
<g filter="url(#filter0_d)">
<path d="M12 28C12 14.7452 22.7452 4 36 4C49.2548 4 60 14.7452 60 28C60 41.2548 49.2548 52 36 52C22.7452 52 12 41.2548 12 28Z" fill="white"/>
</g>
<path fill-rule="evenodd" clip-rule="evenodd" d="M37 22.0807V25.9546L36.0988 26.044C32.5266 26.3986 29.5684 28.8439 28.4644 32.1386C30.5987 30.5505 33.3004 29.7313 36.0973 30.0048L37 30.0931V33.9195L44.3992 28.0001L37 22.0807ZM35 21.0404C35 19.7826 36.4549 19.0834 37.437 19.8691L46.1367 26.8288C46.8873 27.4293 46.8873 28.5709 46.1367 29.1714L37.437 36.1311C36.4549 36.9168 35 36.2175 35 34.9598V31.953C32.2292 31.9636 29.6437 33.2668 27.9676 35.3818C27.3477 36.164 25.9717 35.7868 26.0049 34.668C26.1607 29.4241 29.9847 25.1026 35 24.1811V21.0404Z" fill="#8D80D1"/>
<defs>
<filter id="filter0_d" x="0" y="0" width="72" height="72" filterUnits="userSpaceOnUse" color-interpolation-filters="sRGB">
<feFlood flood-opacity="0" result="BackgroundImageFix"/>
<feColorMatrix in="SourceAlpha" type="matrix" values="0 0 0 0 0 0 0 0 0 0 0 0 0 0 0 0 0 0 127 0"/>
<feOffset dy="8"/>
<feGaussianBlur stdDeviation="6"/>
<feColorMatrix type="matrix" values="0 0 0 0 0.168627 0 0 0 0 0.164706 0 0 0 0 0.270588 0 0 0 0.06 0"/>
<feBlend mode="normal" in2="BackgroundImageFix" result="effect1_dropShadow"/>
<feBlend mode="normal" in="SourceGraphic" in2="effect1_dropShadow" result="shape"/>
</filter>
</defs>
</svg>
