<svg width="72" height="72" viewBox="0 0 72 72" fill="none" xmlns="http://www.w3.org/2000/svg">
<g filter="url(#filter0_d)">
<path d="M12 28C12 14.7452 22.7452 4 36 4C49.2548 4 60 14.7452 60 28C60 41.2548 49.2548 52 36 52C22.7452 52 12 41.2548 12 28Z" fill="white"/>
</g>
<path fill-rule="evenodd" clip-rule="evenodd" d="M31.2929 22.2929C31.6834 21.9024 32.3166 21.9024 32.7071 22.2929L37.7071 27.2929C38.0976 27.6834 38.0976 28.3166 37.7071 28.7071L32.7071 33.7071C32.3166 34.0976 31.6834 34.0976 31.2929 33.7071C30.9024 33.3166 30.9024 32.6834 31.2929 32.2929L34.5858 29H25C24.4477 29 24 28.5523 24 28C24 27.4477 24.4477 27 25 27H34.5858L31.2929 23.7071C30.9024 23.3166 30.9024 22.6834 31.2929 22.2929ZM44 26C42.8954 26 42 26.8954 42 28C42 29.1046 42.8954 30 44 30C45.1046 30 46 29.1046 46 28C46 26.8954 45.1046 26 44 26ZM40 28C40 25.7909 41.7909 24 44 24C46.2091 24 48 25.7909 48 28C48 30.2091 46.2091 32 44 32C41.7909 32 40 30.2091 40 28Z" fill="#8D80D1"/>
<defs>
<filter id="filter0_d" x="0" y="0" width="72" height="72" filterUnits="userSpaceOnUse" color-interpolation-filters="sRGB">
<feFlood flood-opacity="0" result="BackgroundImageFix"/>
<feColorMatrix in="SourceAlpha" type="matrix" values="0 0 0 0 0 0 0 0 0 0 0 0 0 0 0 0 0 0 127 0"/>
<feOffset dy="8"/>
<feGaussianBlur stdDeviation="6"/>
<feColorMatrix type="matrix" values="0 0 0 0 0.168627 0 0 0 0 0.164706 0 0 0 0 0.270588 0 0 0 0.06 0"/>
<feBlend mode="normal" in2="BackgroundImageFix" result="effect1_dropShadow"/>
<feBlend mode="normal" in="SourceGraphic" in2="effect1_dropShadow" result="shape"/>
</filter>
</defs>
</svg>
