<svg width="158" height="32" viewBox="0 0 158 32" fill="none" xmlns="http://www.w3.org/2000/svg">
<path d="M35.6327 7.92727V24.7273H38.7898V11.1433H39.0289L43.071 24.7273H48.5002V7.92727H45.3431V21.5113H45.104L41.0619 7.92727H35.6327Z" fill="#2B2A45"/>
<path d="M51.0904 15.8473L53.8648 16.7833C54.0801 15.7033 54.7976 14.8873 56.3044 14.8873C57.8351 14.8873 58.5048 15.7513 58.5048 16.8553V17.5273H55.2521C52.5733 17.5273 50.6599 18.7993 50.6599 21.2473C50.6599 23.6953 52.5733 25.0633 55.0129 25.0633C57.2133 25.0633 58.0026 23.8633 58.2178 23.3353H58.5527V24.7273H61.4228V17.0713C61.4228 14.0953 59.4615 12.4873 56.3523 12.4873C53.2669 12.4873 51.6644 14.0473 51.0904 15.8473ZM53.6735 21.1753C53.6735 20.3593 54.3432 19.7833 55.4673 19.7833H58.5048V19.9753C58.5048 21.5593 57.309 22.6153 55.6347 22.6153C54.3432 22.6153 53.6735 22.0153 53.6735 21.1753Z" fill="#2B2A45"/>
<path d="M66.9292 12.8233H63.9634V24.7273H66.977V17.8153C66.977 16.1353 68.0772 15.3193 69.6079 15.3193H71.3778V12.7753H70.1341C68.6273 12.7753 67.6228 13.2313 67.1684 14.5033H66.9292V12.8233Z" fill="#2B2A45"/>
<path d="M75.8749 12.8233H72.9091V24.7273H75.9227V17.8153C75.9227 16.1353 77.0229 15.3193 78.5536 15.3193H80.3235V12.7753H79.0798C77.573 12.7753 76.5685 13.2313 76.114 14.5033H75.8749V12.8233Z" fill="#2B2A45"/>
<path d="M81.5945 15.8473L84.3689 16.7833C84.5842 15.7033 85.3017 14.8873 86.8085 14.8873C88.3392 14.8873 89.0089 15.7513 89.0089 16.8553V17.5273H85.7561C83.0774 17.5273 81.164 18.7993 81.164 21.2473C81.164 23.6953 83.0774 25.0633 85.517 25.0633C87.7174 25.0633 88.5066 23.8633 88.7219 23.3353H89.0567V24.7273H91.9268V17.0713C91.9268 14.0953 89.9656 12.4873 86.8563 12.4873C83.771 12.4873 82.1685 14.0473 81.5945 15.8473ZM84.1776 21.1753C84.1776 20.3593 84.8473 19.7833 85.9714 19.7833H89.0089V19.9753C89.0089 21.5593 87.813 22.6153 86.1388 22.6153C84.8473 22.6153 84.1776 22.0153 84.1776 21.1753Z" fill="#2B2A45"/>
<path d="M92.9902 15.2713H95.956V22.0393C95.956 23.6713 97.0084 24.7273 98.5869 24.7273H101.935V22.2793H99.6393C99.2088 22.2793 98.9696 22.0393 98.9696 21.5593V15.2713H102.222V12.8233H98.9696V9.12727H95.956V12.8233H92.9902V15.2713Z" fill="#2B2A45"/>
<path d="M103.609 9.36727C103.609 10.5913 104.542 11.4313 105.737 11.4313C106.933 11.4313 107.866 10.5913 107.866 9.36727C107.866 8.14327 106.933 7.30327 105.737 7.30327C104.542 7.30327 103.609 8.14327 103.609 9.36727ZM107.244 12.8233H104.231V24.7273H107.244V12.8233Z" fill="#2B2A45"/>
<path d="M108.638 12.8233L112.728 24.7273H117.177L121.267 12.8233H118.014L115.072 22.1833H114.833L111.891 12.8233H108.638Z" fill="#2B2A45"/>
<path d="M121.708 18.7753C121.708 22.5673 124.172 25.0633 127.711 25.0633C130.964 25.0633 132.375 23.2153 133.045 21.9433L130.582 20.6473C130.175 21.5593 129.481 22.4713 127.807 22.4713C126.133 22.4713 124.865 21.2953 124.793 19.6633H133.428V18.6313C133.428 14.9833 131.156 12.4873 127.664 12.4873C124.172 12.4873 121.708 14.9833 121.708 18.7753ZM124.817 17.4073C125.009 16.0873 126.013 15.0793 127.64 15.0793C129.194 15.0793 130.223 16.0393 130.366 17.4073H124.817Z" fill="#2B2A45"/>
<path d="M139.392 7.92727V24.7273H147.045C149.915 24.7273 151.972 22.9993 151.972 20.1673C151.972 17.6713 150.346 16.7113 149.15 16.3753V16.1353C150.346 15.7753 151.877 14.8393 151.877 12.3913C151.877 9.65527 149.868 7.92727 146.95 7.92727H139.392ZM142.549 10.8073H146.615C147.954 10.8073 148.863 11.5753 148.863 12.8233C148.863 14.0713 147.954 14.8393 146.615 14.8393H142.549V10.8073ZM142.549 17.7193H146.663C148.05 17.7193 148.959 18.4873 148.959 19.7833C148.959 21.0793 148.05 21.8473 146.663 21.8473H142.549V17.7193Z" fill="#2B2A45"/>
<path d="M154.083 7.92727V24.7273H157.24V7.92727H154.083Z" fill="#2B2A45"/>
<path fill-rule="evenodd" clip-rule="evenodd" d="M21.2484 16C19.9577 19.908 16.2863 22.7273 11.9587 22.7273C7.63112 22.7273 3.95972 19.908 2.66902 16C3.95972 12.092 7.63112 9.27273 11.9587 9.27273C16.2863 9.27273 19.9577 12.092 21.2484 16ZM21.7142 12.1486C19.5471 9.08785 15.9853 7.09091 11.9587 7.09091C7.93211 7.09091 4.37032 9.08785 2.20323 12.1486C2.59005 7.08156 6.80995 3.09091 11.9587 3.09091C17.1075 3.09091 21.3274 7.08156 21.7142 12.1486ZM23.517 16C23.7782 15.0138 23.9174 13.9778 23.9174 12.9091C23.9174 6.28167 18.5633 0.909088 11.9587 0.909088C5.3541 0.909088 0 6.28167 0 12.9091C0 13.9778 0.139219 15.0138 0.400451 16C0.139219 16.9862 0 18.0222 0 19.0909C0 25.7183 5.3541 31.0909 11.9587 31.0909C18.5633 31.0909 23.9174 25.7183 23.9174 19.0909C23.9174 18.0222 23.7782 16.9862 23.517 16ZM21.7142 19.8514C19.5471 22.9121 15.9853 24.9091 11.9587 24.9091C7.93211 24.9091 4.37032 22.9121 2.20323 19.8514C2.59005 24.9184 6.80995 28.9091 11.9587 28.9091C17.1075 28.9091 21.3274 24.9184 21.7142 19.8514ZM16.3073 16C16.3073 18.41 14.3604 20.3636 11.9587 20.3636C9.55704 20.3636 7.61009 18.41 7.61009 16C7.61009 13.59 9.55704 11.6364 11.9587 11.6364C14.3604 11.6364 16.3073 13.59 16.3073 16Z" fill="#8D80D1"/>
</svg>
