<svg width="158" height="32" viewBox="0 0 158 32" fill="none" xmlns="http://www.w3.org/2000/svg">
<path d="M35.6327 7.92725V24.7272H38.7898V11.1432H39.0289L43.071 24.7272H48.5002V7.92725H45.3431V21.5112H45.104L41.0619 7.92725H35.6327Z" fill="white"/>
<path d="M51.0904 15.8473L53.8648 16.7833C54.0801 15.7033 54.7976 14.8873 56.3044 14.8873C57.8351 14.8873 58.5048 15.7513 58.5048 16.8553V17.5273H55.2521C52.5733 17.5273 50.6599 18.7993 50.6599 21.2473C50.6599 23.6953 52.5733 25.0633 55.0129 25.0633C57.2133 25.0633 58.0026 23.8633 58.2178 23.3353H58.5527V24.7273H61.4228V17.0713C61.4228 14.0953 59.4615 12.4873 56.3523 12.4873C53.2669 12.4873 51.6644 14.0473 51.0904 15.8473ZM53.6735 21.1753C53.6735 20.3593 54.3432 19.7833 55.4673 19.7833H58.5048V19.9753C58.5048 21.5593 57.309 22.6153 55.6347 22.6153C54.3432 22.6153 53.6735 22.0153 53.6735 21.1753Z" fill="white"/>
<path d="M66.9292 12.8234H63.9634V24.7274H66.977V17.8154C66.977 16.1354 68.0772 15.3194 69.6079 15.3194H71.3778V12.7754H70.1341C68.6273 12.7754 67.6228 13.2314 67.1684 14.5034H66.9292V12.8234Z" fill="white"/>
<path d="M75.8749 12.8234H72.9091V24.7274H75.9227V17.8154C75.9227 16.1354 77.0229 15.3194 78.5536 15.3194H80.3235V12.7754H79.0798C77.573 12.7754 76.5685 13.2314 76.114 14.5034H75.8749V12.8234Z" fill="white"/>
<path d="M81.5945 15.8473L84.3689 16.7833C84.5842 15.7033 85.3017 14.8873 86.8085 14.8873C88.3392 14.8873 89.0089 15.7513 89.0089 16.8553V17.5273H85.7561C83.0774 17.5273 81.164 18.7993 81.164 21.2473C81.164 23.6953 83.0774 25.0633 85.517 25.0633C87.7174 25.0633 88.5066 23.8633 88.7219 23.3353H89.0567V24.7273H91.9268V17.0713C91.9268 14.0953 89.9656 12.4873 86.8563 12.4873C83.771 12.4873 82.1685 14.0473 81.5945 15.8473ZM84.1776 21.1753C84.1776 20.3593 84.8473 19.7833 85.9714 19.7833H89.0089V19.9753C89.0089 21.5593 87.813 22.6153 86.1388 22.6153C84.8473 22.6153 84.1776 22.0153 84.1776 21.1753Z" fill="white"/>
<path d="M92.9902 15.2714H95.956V22.0394C95.956 23.6714 97.0084 24.7274 98.5869 24.7274H101.935V22.2794H99.6393C99.2088 22.2794 98.9696 22.0394 98.9696 21.5594V15.2714H102.222V12.8234H98.9696V9.12744H95.956V12.8234H92.9902V15.2714Z" fill="white"/>
<path d="M103.609 9.36722C103.609 10.5912 104.542 11.4312 105.737 11.4312C106.933 11.4312 107.866 10.5912 107.866 9.36722C107.866 8.14322 106.933 7.30322 105.737 7.30322C104.542 7.30322 103.609 8.14322 103.609 9.36722ZM107.244 12.8232H104.231V24.7272H107.244V12.8232Z" fill="white"/>
<path d="M108.638 12.8232L112.728 24.7272H117.177L121.267 12.8232H118.014L115.072 22.1832H114.833L111.891 12.8232H108.638Z" fill="white"/>
<path d="M121.708 18.7753C121.708 22.5673 124.172 25.0633 127.711 25.0633C130.964 25.0633 132.375 23.2153 133.045 21.9433L130.582 20.6473C130.175 21.5593 129.481 22.4713 127.807 22.4713C126.133 22.4713 124.865 21.2953 124.793 19.6633H133.428V18.6313C133.428 14.9833 131.156 12.4873 127.664 12.4873C124.172 12.4873 121.708 14.9833 121.708 18.7753ZM124.817 17.4073C125.009 16.0873 126.013 15.0793 127.64 15.0793C129.194 15.0793 130.223 16.0393 130.366 17.4073H124.817Z" fill="white"/>
<path d="M139.392 7.92725V24.7272H147.045C149.915 24.7272 151.972 22.9992 151.972 20.1672C151.972 17.6712 150.346 16.7112 149.15 16.3752V16.1352C150.346 15.7752 151.877 14.8392 151.877 12.3912C151.877 9.65525 149.867 7.92725 146.95 7.92725H139.392ZM142.549 10.8072H146.615C147.954 10.8072 148.863 11.5752 148.863 12.8232C148.863 14.0712 147.954 14.8392 146.615 14.8392H142.549V10.8072ZM142.549 17.7192H146.663C148.05 17.7192 148.959 18.4872 148.959 19.7832C148.959 21.0792 148.05 21.8472 146.663 21.8472H142.549V17.7192Z" fill="white"/>
<path d="M154.083 7.92725V24.7272H157.24V7.92725H154.083Z" fill="white"/>
<path fill-rule="evenodd" clip-rule="evenodd" d="M21.2484 16.0001C19.9577 19.9081 16.2863 22.7274 11.9587 22.7274C7.63112 22.7274 3.95972 19.9081 2.66902 16.0001C3.95972 12.0921 7.63112 9.27282 11.9587 9.27282C16.2863 9.27282 19.9577 12.0921 21.2484 16.0001ZM21.7142 12.1487C19.5471 9.08794 15.9853 7.091 11.9587 7.091C7.93211 7.091 4.37032 9.08794 2.20323 12.1487C2.59005 7.08165 6.80995 3.091 11.9587 3.091C17.1075 3.091 21.3274 7.08165 21.7142 12.1487ZM23.517 16.0001C23.7782 15.0139 23.9174 13.9779 23.9174 12.9092C23.9174 6.28176 18.5633 0.90918 11.9587 0.90918C5.3541 0.90918 0 6.28176 0 12.9092C0 13.9779 0.139219 15.0139 0.400451 16.0001C0.139219 16.9863 0 18.0223 0 19.091C0 25.7184 5.3541 31.091 11.9587 31.091C18.5633 31.091 23.9174 25.7184 23.9174 19.091C23.9174 18.0223 23.7782 16.9863 23.517 16.0001ZM21.7142 19.8515C19.5471 22.9122 15.9853 24.9092 11.9587 24.9092C7.93211 24.9092 4.37032 22.9122 2.20323 19.8515C2.59005 24.9185 6.80995 28.9092 11.9587 28.9092C17.1075 28.9092 21.3274 24.9185 21.7142 19.8515ZM16.3073 16.0001C16.3073 18.4101 14.3604 20.3637 11.9587 20.3637C9.55704 20.3637 7.61009 18.4101 7.61009 16.0001C7.61009 13.5901 9.55704 11.6365 11.9587 11.6365C14.3604 11.6365 16.3073 13.5901 16.3073 16.0001Z" fill="#8D80D1"/>
</svg>
